<?xml version="1.0" encoding="UTF-8"?>
<svg width="27px" height="13px" viewBox="0 0 27 13" version="1.1" xmlns="http://www.w3.org/2000/svg" xmlns:xlink="http://www.w3.org/1999/xlink">
    <title>wc-product-data-tab-inactive</title>
    <g stroke="none" stroke-width="1" fill="none" fill-rule="evenodd">
        <path d="M20.0248487,-1.8189894e-12 C23.2712089,-1.8189894e-12 26.4034474,1.9521873 26.4034474,6.43557508 C26.4034474,10.2808647 22.7919198,12.239763 20.0248487,12.239763 C17.737241,12.239763 16.4929098,11.3695229 15.434107,10.5295777 C14.7282384,9.96961415 14.0166775,9.15893288 13.2994241,8.09753387 C12.4175182,9.36120646 11.6958645,10.2167389 11.134463,10.6641312 C9.90906417,11.6406764 8.34852064,12.300283 6.39809755,12.239763 C3.76356092,12.1580155 0.403447427,10.4916308 0.403447427,6.08075065 C0.403447427,1.01220202 5.14276295,-1.8189894e-12 6.39809755,-1.8189894e-12 C7.62476361,-1.8189894e-12 8.77426241,0.163221304 9.57991772,0.56031425 C10.7691975,1.14648877 11.5526417,1.80451541 11.6669087,1.95218726 C11.7811756,2.09985912 12.127888,2.77125983 11.629862,3.25876289 C11.1946964,3.68473377 10.5887146,3.55854825 10.4119878,3.46525376 C10.1286806,3.3156952 9.54015352,2.67293912 8.62366473,2.28476825 C7.70717594,1.89659739 7.16075715,1.95218726 6.39809755,1.95218726 C5.11960286,1.95218726 2.44901931,2.91097563 2.44901931,6.08075065 C2.44901931,9.25052567 4.87805824,10.2808647 6.39809755,10.2808647 C7.84018537,10.2808647 8.6787177,10.1918324 9.94095777,9.06663436 C10.8611574,8.2463412 11.708032,6.9265249 12.3957574,5.79836929 C13.8941857,3.34032401 14.5941702,2.67089694 15.0569564,2.15941322 C16.552988,0.505958965 18.5637598,-1.8189894e-12 20.0248487,-1.8189894e-12 Z M20.1064005,1.9164804 C18.7632588,1.9164804 17.9452202,2.2103844 16.9608509,3.01218157 C16.3876983,3.47903089 15.579217,4.51557171 14.5354071,6.12180403 C15.8709386,8.94761251 17.7279364,10.3605167 20.1064005,10.3605167 C21.1996914,10.3605167 22.4357573,9.97434274 23.2749883,9.10959944 C23.9506521,8.41339582 24.350996,7.47426297 24.350996,6.11988149 C24.350996,3.1563118 22.2262858,1.9164804 20.1064005,1.9164804 Z" id="wc-product-data-tab-inactive" fill="#2271B1"></path>
    </g>
</svg>
