<?xml version="1.0" encoding="UTF-8"?>
<svg width="256px" height="256px" viewBox="0 0 256 256" version="1.1" xmlns="http://www.w3.org/2000/svg" xmlns:xlink="http://www.w3.org/1999/xlink">
    <title>icon</title>
    <g id="icon" stroke="none" stroke-width="1" fill="none" fill-rule="evenodd">
        <rect fill="#4286F5" x="0" y="0" width="256" height="256"></rect>
        <path d="M179.952533,80 C205.423975,80 230,95.3067609 230,130.460224 C230,155.826698 207.390658,175.969852 180.321899,175.969852 C162.372976,175.969852 152.240397,169.146451 143.932867,162.560586 C138.394514,158.17001 132.811497,151.813599 127.183817,143.491354 C120.264248,153.399591 114.602042,160.107672 110.197199,163.615597 C100.582531,171.272518 88.3382668,176.444378 73.0349472,175.969852 C52.3639674,175.328884 26,162.263051 26,127.678108 C26,87.9364999 63.1853987,80 73.0349472,80 C82.6595578,80 91.6787022,81.2797898 98,84.3933265 C107.33127,88.9894189 113.478294,94.1488913 114.37485,95.3067606 C115.271406,96.4646299 117.991765,101.728966 114.084176,105.551393 C110.6698,108.891356 105.915173,107.901958 104.528548,107.170452 C102.305676,105.997789 97.6880016,100.95805 90.4970896,97.9144703 C83.3061775,94.8708901 79.0188917,95.3067606 73.0349472,95.3067606 C63.0036811,95.3067606 42.0498717,102.824453 42.0498717,127.678108 C42.0498717,152.531762 61.1084849,160.610471 73.0349472,160.610471 C84.34979,160.610471 90.9290437,159.912384 100.832773,151.089902 C108.052802,144.658126 114.69751,134.309676 120.093509,125.464005 C131.850408,106.190899 137.342594,100.942038 140.973686,96.9315833 C152.71178,83.9671362 168.488605,80 179.952533,80 Z M180.702574,95 C170.166078,95 163.748839,97.3100816 156.026792,103.612197 C151.530603,107.281627 145.188338,115.428824 137,128.053789 C147.69329,150.01793 162.322363,161 180.887221,161 C196.509126,161 214,150.31126 214,128.038678 C214,104.745059 197.332362,95 180.702574,95 Z" id="Combined-Shape" fill="#FFFFFF"></path>
    </g>
</svg>